<svg preserveAspectRatio="none" width="100%" height="100%" overflow="visible" style="display: block;" viewBox="0 0 106 26" fill="none" xmlns="http://www.w3.org/2000/svg">
<g id="Vector">
<path d="M36.2316 10.7994C36.1793 10.7994 36.1334 10.8344 36.1194 10.8849L33.7429 19.4797H33.1202L30.7208 10.8846C30.7067 10.8342 30.6608 10.7994 30.6086 10.7994H28.2229C28.1451 10.7994 28.0892 10.8743 28.1112 10.949L31.2265 21.5082C31.2411 21.5577 31.2865 21.5917 31.3382 21.5917H35.5019C35.5535 21.5917 35.5989 21.5577 35.6135 21.5082L38.7297 10.949C38.7518 10.8743 38.6958 10.7994 38.618 10.7994H36.2316Z" fill="var(--fill-0, #14140F)"/>
<path d="M44.2651 10.4278C44.2648 10.4275 44.2644 10.4273 44.264 10.4273C40.9877 10.4277 38.7732 12.7717 38.7732 16.2061C38.7732 19.6407 41.0575 21.9392 44.3573 21.9392C46.9125 21.9392 49.0246 20.3346 49.4556 18.1523C49.4695 18.0818 49.4147 18.0171 49.3429 18.0171H47.0712C47.0215 18.0171 46.9775 18.0489 46.96 18.0954C46.551 19.1819 45.5969 19.7582 44.3342 19.7582C42.6032 19.7582 41.4958 18.6444 41.3114 16.7877H49.3934C49.455 16.7877 49.5061 16.7396 49.5091 16.678C49.5261 16.3287 49.5242 16.0187 49.5032 15.7662C49.3883 12.4007 47.4036 10.4286 44.2663 10.4283C44.2658 10.4283 44.2654 10.4281 44.2651 10.4278ZM41.4263 14.8835C41.7729 13.2822 42.7412 12.4462 44.2415 12.4462C45.7418 12.4462 46.7102 13.3279 46.9177 14.8835H41.4263Z" fill="var(--fill-0, #14140F)"/>
<path d="M53.3077 6.38727H50.9792C50.9149 6.38727 50.8628 6.43945 50.8628 6.50381V21.4726C50.8628 21.5369 50.9149 21.5891 50.9792 21.5891H53.3077C53.372 21.5891 53.4241 21.5369 53.4241 21.4726V6.50381C53.4241 6.43945 53.372 6.38727 53.3077 6.38727Z" fill="var(--fill-0, #14140F)"/>
<path d="M72.9901 10.4277C72.9898 10.4274 72.9894 10.4272 72.989 10.4272C69.7126 10.4275 67.4982 12.7715 67.4982 16.2059C67.4982 19.6406 69.7824 21.939 73.0823 21.939C75.6375 21.939 77.7496 20.3344 78.1805 18.1521C78.1945 18.0816 78.1397 18.0169 78.0679 18.0169H75.7961C75.7465 18.0169 75.7024 18.0487 75.6849 18.0952C75.276 19.1818 74.3219 19.758 73.0591 19.758C71.3281 19.758 70.2207 18.6442 70.0363 16.7875H78.1183C78.18 16.7875 78.231 16.7395 78.234 16.6778C78.2511 16.3285 78.2491 16.0186 78.2281 15.766C78.1132 12.4006 76.1286 10.4284 72.9912 10.4281C72.9908 10.4281 72.9904 10.428 72.9901 10.4277ZM70.1512 14.8834C70.4978 13.2821 71.4662 12.446 72.9665 12.446C74.4668 12.446 75.4351 13.3277 75.6427 14.8834H70.1512Z" fill="var(--fill-0, #14140F)"/>
<path d="M92.5323 15.2996L96.8337 10.8812C96.8428 10.8719 96.8478 10.8595 96.8478 10.8465C96.8478 10.8191 96.8256 10.7968 96.7982 10.7968H93.7133C93.6816 10.7968 93.6514 10.8097 93.6294 10.8325L89.4177 15.2064V6.50381C89.4177 6.43945 89.3656 6.38727 89.3013 6.38727H86.9729C86.9086 6.38727 86.8564 6.43945 86.8564 6.50381V21.4726C86.8564 21.5369 86.9086 21.5891 86.9729 21.5891H89.3013C89.3656 21.5891 89.4177 21.5369 89.4177 21.4726V17.2597H90.9366L94.044 21.5411C94.0659 21.5713 94.101 21.5891 94.1383 21.5891H96.9916C97.0396 21.5891 97.0786 21.5502 97.0786 21.5021C97.0786 21.4836 97.0726 21.4655 97.0616 21.4505L92.5323 15.2996Z" fill="var(--fill-0, #14140F)"/>
<path d="M61.3426 10.4272C59.6181 10.4272 58.3893 11.6864 58.1817 12.2419H57.6822V10.9156C57.6822 10.8513 57.6301 10.7991 57.5658 10.7991H55.3228C55.2559 10.7991 55.2028 10.8552 55.2061 10.9221C55.2269 11.3504 55.246 12.0153 55.246 12.7946V25.8835C55.246 25.9478 55.2982 26 55.3625 26H57.6677C57.732 26 57.7842 25.9478 57.7842 25.8835V20.76H58.2837C58.76 21.5121 59.9341 21.9614 61.2221 21.9614C64.4757 21.9614 66.5524 19.3852 66.5524 16.1826C66.5524 12.9801 64.6647 10.4272 61.3426 10.4272ZM60.8061 19.7105C58.9601 19.7105 57.6452 18.2947 57.6452 16.1826C57.6452 14.0706 58.9601 12.7014 60.8061 12.7014C62.652 12.7014 63.9215 14.0706 63.9215 16.1826C63.9215 18.2947 62.6298 19.7105 60.8061 19.7105Z" fill="var(--fill-0, #14140F)"/>
<path d="M26.9735 10.9204C26.9735 10.856 26.9214 10.8038 26.8571 10.8038H24.5518C24.4875 10.8038 24.4354 10.856 24.4354 10.9204V11.8841H23.9359C23.3845 10.8849 22.2855 10.4031 20.9974 10.4031C17.7439 10.4031 15.6672 12.9793 15.6672 16.1818C15.6672 19.3844 17.5548 21.9373 20.8769 21.9373C22.6015 21.9373 23.5819 21.0602 24.0378 20.4022H24.5373V21.4488C24.5373 21.5132 24.5894 21.5654 24.6538 21.5654H26.8968C26.9636 21.5654 27.0167 21.5092 27.0135 21.4424C26.9926 21.014 26.9735 20.3492 26.9735 19.5698V10.9204ZM21.4126 19.664C19.613 19.664 18.2971 18.2948 18.2971 16.1827C18.2971 14.0707 19.5889 12.6549 21.4126 12.6549C23.2363 12.6549 24.5735 14.0707 24.5735 16.1827C24.5735 18.2948 23.2585 19.664 21.4126 19.664Z" fill="var(--fill-0, #14140F)"/>
<path d="M4.89377 7.30123C4.89377 7.23687 4.84163 7.18469 4.77731 7.18469H2.44889C2.38458 7.18469 2.33244 7.23687 2.33244 7.30123V10.7936H0.116452C0.0521376 10.7936 0 10.8458 0 10.9102V12.7658C0 12.8302 0.0521374 12.8824 0.116452 12.8824H2.33244V19.4599C2.33244 20.6772 3.31379 21.6642 4.52402 21.6642H7.25802C7.32233 21.6642 7.37447 21.612 7.37447 21.5477V19.6734C7.37447 19.609 7.32233 19.5568 7.25802 19.5568H4.89284V12.8824H7.77418C7.83849 12.8824 7.89063 12.8302 7.89063 12.7658V10.9102C7.89063 10.8458 7.83849 10.7936 7.77418 10.7936H4.89377V7.30123Z" fill="var(--fill-0, #14140F)"/>
<path d="M12.2228 11.9123H11.7233L11.7175 10.9116C11.7171 10.8475 11.6651 10.7957 11.601 10.7957H9.27761C9.21112 10.7957 9.15814 10.8511 9.16104 10.9176C9.18222 11.4023 9.20182 12.0873 9.20182 12.7912V21.4705C9.20182 21.5349 9.25396 21.5871 9.31827 21.5871H11.6467C11.711 21.5871 11.7631 21.5349 11.7631 21.4705V16.2259C11.7631 14.1604 12.9169 13.0233 14.8555 13.0233C15.0435 13.0233 15.2315 13.0388 15.4195 13.0571C15.4881 13.0638 15.5477 13.01 15.5477 12.941V10.7902C15.5477 10.7383 15.5134 10.6924 15.4626 10.6816C15.3295 10.6532 15.1377 10.6278 14.9435 10.6158C13.7499 10.6494 12.7436 10.9681 12.2237 11.9114L12.2228 11.9123Z" fill="var(--fill-0, #14140F)"/>
<path d="M82.5011 11.9121H82.0017L81.9958 10.9114C81.9955 10.8473 81.9434 10.7955 81.8794 10.7955H79.556C79.4895 10.7955 79.4365 10.851 79.4394 10.9175C79.4606 11.4021 79.4802 12.0871 79.4802 12.7911V21.4704C79.4802 21.5347 79.5323 21.5869 79.5966 21.5869H81.9251C81.9894 21.5869 82.0415 21.5347 82.0415 21.4704V16.2257C82.0415 14.1603 83.1952 13.0232 85.1338 13.0232C85.3218 13.0232 85.5099 13.0386 85.6979 13.057C85.7665 13.0637 85.826 13.0099 85.826 12.9409V10.79C85.826 10.7381 85.7917 10.6923 85.741 10.6814C85.6079 10.653 85.4161 10.6277 85.2219 10.6157C84.0283 10.6492 83.0219 10.968 82.5021 11.9112L82.5011 11.9121Z" fill="var(--fill-0, #14140F)"/>
<path d="M100.085 0.100794C100.093 0.0430503 100.142 0 100.2 0H101.009C101.067 0 101.116 0.0430503 101.124 0.100794L101.595 3.5556C101.605 3.6334 101.538 3.69921 101.46 3.6863L100.624 3.54675C100.611 3.54464 100.598 3.54464 100.585 3.54675L99.7486 3.6863C99.6712 3.69921 99.6035 3.63339 99.6141 3.5556L100.085 0.100794Z" fill="var(--fill-0, #14140F)"/>
<path d="M105.893 6.25232C105.954 6.24729 106 6.19679 106 6.13618V5.33709C106 5.27695 105.954 5.22668 105.894 5.22106L100.615 4.72577C100.608 4.72509 100.601 4.72509 100.594 4.72577L95.3143 5.22106C95.2545 5.22668 95.2088 5.27695 95.2088 5.33709V6.13618C95.2088 6.19679 95.2552 6.24729 95.3155 6.25232L99.213 6.57735C99.2404 6.57964 99.2662 6.59159 99.2856 6.61108L99.5647 6.89035C99.5829 6.90852 99.5945 6.9322 99.5978 6.95768L100.085 10.698C100.093 10.756 100.142 10.7994 100.201 10.7994H101.008C101.066 10.7994 101.116 10.756 101.123 10.698L101.611 6.95768C101.614 6.9322 101.626 6.90852 101.644 6.89035L101.923 6.61108C101.943 6.59159 101.968 6.57964 101.996 6.57735L105.893 6.25232Z" fill="var(--fill-0, #14140F)"/>
</g>
</svg>
